<?xml version="1.0" standalone="no"?><!DOCTYPE svg PUBLIC "-//W3C//DTD SVG 1.1//EN" "http://www.w3.org/Graphics/SVG/1.1/DTD/svg11.dtd"><svg t="1608082760878" class="icon" viewBox="0 0 1075 1024" version="1.1" xmlns="http://www.w3.org/2000/svg" p-id="3897" xmlns:xlink="http://www.w3.org/1999/xlink" width="209.9609375" height="200"><defs><style type="text/css"></style></defs><path d="M0 409.6a51.2 51.2 0 1 1 102.4 0v563.2a51.2 51.2 0 0 1-102.4 0V409.6z" fill="#87c68d" p-id="3898"></path><path d="M83.6096 589.1584A51.2 51.2 0 0 1 18.7904 509.9008L142.336 408.7296a153.6 153.6 0 0 1 155.8528-23.1424L433.152 441.2416c93.2864 40.6016 130.1504 112.128 91.648 195.6864-40.96 89.088-136.3968 92.928-263.7824 32.768a51.2 51.2 0 1 1 43.7248-92.5696c82.688 39.0144 117.6064 37.632 127.0784 16.9472 12.0832-26.112 5.2224-39.424-38.6048-58.5216L259.1744 480.256a51.2 51.2 0 0 0-51.9168 7.68l-123.648 101.2224z" fill="#87c68d" p-id="3899"></path><path d="M837.4272 517.4784c69.5296-31.6416 130.8672-26.112 167.68 26.88 44.3904 63.8464 20.2752 127.4368-37.2224 181.248-21.1456 19.7632-129.3824 104.6016-331.8784 260.4544a153.6 153.6 0 0 1-144.5888 23.1936l-310.6304-109.056a51.2 51.2 0 1 1 33.9456-96.6144l310.6304 109.056a51.2 51.2 0 0 0 48.128-7.68c196.5568-151.2448 307.0976-237.9776 324.4544-254.208 24.9344-23.296 30.3104-37.4784 23.04-47.9232-3.328-4.8128-11.6224-5.632-38.8608 6.7584l-295.6288 152.7808a51.2 51.2 0 0 1-39.0656 3.2768l-280.832-89.4976a51.2 51.2 0 1 1 31.0784-97.5872l260.6592 83.0976 279.04-144.1792zM768 153.6a51.2 51.2 0 0 0 0-102.4h-152.8832a102.4 102.4 0 0 0-102.4 102.4v25.6a102.4 102.4 0 0 0 102.4 102.4H716.8V307.2h-153.6a51.2 51.2 0 0 0 0 102.4h153.6a102.4 102.4 0 0 0 102.4-102.4v-25.6a102.4 102.4 0 0 0-102.4-102.4h-101.6832V153.6H768z" fill="#87c68d" p-id="3900"></path><path d="M716.8 409.1392a51.2 51.2 0 0 1-102.4 0V358.4a51.2 51.2 0 0 1 102.4 0v50.7392zM716.8 102.4a51.2 51.2 0 0 1-102.4 0V51.2a51.2 51.2 0 0 1 102.4 0v51.2z" fill="#87c68d" p-id="3901"></path></svg>