<?xml version="1.0" standalone="no"?><!DOCTYPE svg PUBLIC "-//W3C//DTD SVG 1.1//EN" "http://www.w3.org/Graphics/SVG/1.1/DTD/svg11.dtd"><svg t="1608047760820" class="icon" viewBox="0 0 1024 1024" version="1.1" xmlns="http://www.w3.org/2000/svg" p-id="2676" xmlns:xlink="http://www.w3.org/1999/xlink" width="200" height="200"><defs><style type="text/css"></style></defs><path d="M758.15 959.65H341.446l42.528-212.958 331.586-0.064z" fill="#CCD1D9" p-id="2677"></path><path d="M1023.6 767.8c0 11.802-9.554 21.358-21.326 21.358H21.696c-11.74 0-21.294-9.554-21.294-21.358V85.676c0-11.772 9.554-21.328 21.294-21.328h980.578c11.772 0 21.326 9.554 21.326 21.328V767.8z" fill="#F5F7FA" p-id="2678"></path><path d="M21.696 789.158h980.578c11.772 0 21.326-9.554 21.326-21.358v-106.542H0.4V767.8c0 11.804 9.556 21.358 21.296 21.358z" fill="#E6E9ED" p-id="2679"></path><path d="M85.646 490.672H512v172.584H85.646zM554.624 490.672h426.324v172.584H554.624z" fill="#A0D468" p-id="2680"></path><path d="M533.294 725.208c0 11.74-9.524 21.294-21.294 21.294s-21.326-9.554-21.326-21.294c0-11.804 9.554-21.36 21.326-21.36s21.294 9.556 21.294 21.36z" fill="#434A54" p-id="2681"></path><path d="M85.646 149.626h852.676v298.422H85.646z" fill="#48CFAD" p-id="2682"></path><path d="M341.446 917.058a21.26 21.26 0 0 0-21.294 21.294c0 11.742 9.524 21.296 21.294 21.296h395.41v-42.592H341.446z" fill="#E6E9ED" p-id="2683"></path><path d="M789.096 320.15H234.874c-11.772 0-21.328-9.556-21.328-21.328s9.556-21.294 21.328-21.294h554.222c11.774 0 21.328 9.524 21.328 21.294 0 11.772-9.554 21.328-21.328 21.328z" fill="#434A54" p-id="2684"></path><path d="M694.514 384.1h295.332v341.11H694.514z" fill="#48CFAD" p-id="2685"></path><path d="M694.514 725.208h295.332v176.048H694.514z" fill="#A0D468" p-id="2686"></path><path d="M980.948 341.476H703.85c-23.542 0-42.654 19.08-42.654 42.624v532.958c0 23.544 19.112 42.592 42.654 42.592h277.098c23.574 0 42.652-19.046 42.652-42.592V384.1c0-23.544-19.078-42.624-42.652-42.624z m0 575.582H703.85V384.1h277.098v532.958z" fill="#434A54" p-id="2687"></path><path d="M693.576 874.404h298.142v53.772H693.576z" fill="#434A54" p-id="2688"></path><path d="M863.568 917.058c0 11.74-9.554 21.294-21.326 21.294s-21.294-9.554-21.294-21.294c0-11.802 9.524-21.358 21.294-21.358s21.326 9.556 21.326 21.358z" fill="#E6E9ED" p-id="2689"></path><path d="M916.934 575.952h-149.384c-11.77 0-21.326-9.556-21.326-21.296 0-11.802 9.556-21.296 21.326-21.296h149.384c11.772 0 21.326 9.494 21.326 21.296 0 11.738-9.554 21.296-21.326 21.296z" fill="#434A54" p-id="2690"></path></svg>